<svg width="15" height="19" viewBox="0 0 15 19" fill="none" xmlns="http://www.w3.org/2000/svg">
<path d="M7.50052 0.147522C9.932 0.147522 11.9067 2.11779 11.9157 4.54927C11.9247 6.98076 9.932 8.96893 7.49156 8.96445C5.06456 8.95998 3.08086 6.97628 3.08533 4.55375C3.09429 2.12226 5.06903 0.147522 7.50052 0.147522ZM7.50052 8.08231C9.44392 8.08231 11.0291 6.50162 11.0336 4.56271C11.0336 2.61931 9.46183 1.03862 7.51395 1.02966C5.56608 1.02071 3.97195 2.61035 3.97195 4.56271C3.97195 6.5061 5.55264 8.08231 7.50052 8.08231Z" fill="black"/>
<path d="M7.11988 11.1766C4.96154 11.2661 3.08084 12.4572 1.8136 14.6424C1.18669 15.7216 0.904589 16.8993 0.882199 18.1441C0.877721 18.4352 0.765775 18.6098 0.550837 18.6591C0.250819 18.7352 -0.00441983 18.5069 5.8042e-05 18.1576C0.0179695 17.1142 0.197084 16.0978 0.600093 15.1305C1.47776 13.0259 2.93307 11.4676 5.10483 10.7198C7.92142 9.75261 10.4469 10.3661 12.5874 12.4169C14.1994 13.9618 14.9427 15.9097 15.0009 18.1307C15.0099 18.4621 14.8442 18.6636 14.5666 18.6681C14.289 18.6725 14.1278 18.4845 14.1143 18.1486C14.0337 15.6992 13.062 13.7111 11.047 12.2826C9.99467 11.5393 8.79908 11.1811 7.11988 11.1766Z" fill="black"/>
</svg>
