<svg width="81" height="99" viewBox="0 0 81 99" fill="none" xmlns="http://www.w3.org/2000/svg">
<path d="M0.170898 0.999985L0.170898 98.6874H80.7089V0.999985H0.170898Z" fill="white" stroke="#DDDDDD" stroke-width="0.25" stroke-miterlimit="10"/>
<path d="M9.39355 72.2044V10.1534H18.1711C17.4012 14.5298 18.9411 33.5984 29.8745 38.9126C37.4202 42.6637 49.1236 36.2555 48.8156 10.1534H57.5932C57.5932 10.1534 58.2091 49.6972 32.1844 48.2905V72.0481H23.4069V45.4771L20.481 42.5075L17.5552 39.5378V72.0481H9.39355V72.2044Z" fill="#C9D851"/>
<path d="M23.407 10.1534H31.5686C31.5686 10.1534 32.1845 29.222 38.4982 36.0992C38.6522 36.2555 23.715 42.3511 23.407 10.1534Z" fill="#52B2AD"/>
<path d="M48.9696 72.2044H57.4391V45.7897C57.4391 45.7897 61.5969 42.9763 63.1369 39.8504V72.2044H71.6064V10.1534H63.1369C63.1369 10.1534 65.2928 34.0673 44.1958 48.2905H48.8156V72.2044H48.9696Z" fill="#52B2AD"/>
<path d="M14.0133 78.3001C13.5514 80.9572 12.7814 84.3958 12.4734 86.1151C12.1654 84.0832 11.5494 80.4883 11.0875 78.3001V78.1438H9.39355V89.2411H10.6255V84.7084C10.6255 83.6143 10.6255 82.3639 10.6255 81.2698C10.7795 82.6765 11.0875 84.3958 11.3955 86.1151C11.5494 87.2092 11.7034 88.3033 11.8574 89.2411V89.3974H13.0894V89.2411C13.5513 86.7403 14.1673 83.458 14.4753 81.2698C14.4753 82.3639 14.4753 83.458 14.4753 84.5521V89.3974H15.7072V78.3001H14.0133Z" fill="#C9D851"/>
<path d="M20.019 83.9269H22.4829V82.6765H20.019V79.3942H22.6369V78.1438H18.7871V89.2411H22.6369L22.7909 87.9907H20.019V83.9269Z" fill="#C9D851"/>
<path d="M26.9487 78.1438H24.9468V89.2411H26.7947C29.2586 89.2411 29.5665 87.5218 29.5665 85.6462V81.2698C29.7205 79.8631 29.4126 78.1438 26.9487 78.1438ZM28.3346 81.2698V85.9588C28.3346 87.5218 27.8726 87.9907 26.7947 87.9907H26.3327V79.2379H26.7947C28.1806 79.3942 28.3346 80.0194 28.3346 81.2698Z" fill="#C9D851"/>
<path d="M33.7243 78.1438H32.3384V89.2411H33.7243V78.1438Z" fill="#C9D851"/>
<path d="M39.73 83.3017C40.192 82.9891 40.5 82.3639 40.5 81.1135V80.4883C40.5 78.9253 39.73 78.1438 38.3441 78.1438H36.6501V89.2411H38.1901C40.192 89.2411 40.6539 87.9907 40.6539 86.2714V85.4899C40.6539 84.0832 40.192 83.6143 39.73 83.3017ZM37.5741 82.8328V78.9253H38.1901C39.114 78.9253 39.422 79.3942 39.422 80.4883V81.1135C39.422 82.6765 39.114 82.9891 38.3441 82.9891H37.5741V82.8328ZM39.73 85.4899V86.2714C39.73 87.8344 39.422 88.4596 38.1901 88.4596H37.5741V83.7706H38.3441C39.422 83.7706 39.73 84.3958 39.73 85.4899Z" fill="#52B2AD"/>
<path d="M47.1216 86.1151V85.8025C47.1216 84.5521 46.9676 83.9269 46.3516 83.6143C46.9676 83.3017 47.2756 82.5202 47.2756 81.2698V80.6446C47.2756 78.9253 46.5056 78.1438 44.9657 78.1438H43.4258V89.2411H44.3497V83.9269H45.1197C46.1976 83.9269 46.3516 84.2395 46.3516 85.8025V85.9588C46.3516 86.7403 46.3516 88.4596 46.5056 89.0848V89.2411H47.4296V89.0848C47.1216 88.4596 47.1216 87.0529 47.1216 86.1151ZM46.3516 80.6446V81.2698C46.3516 82.6765 46.0436 83.1454 45.1197 83.1454H44.1957V79.0816H44.8117C45.8897 79.0816 46.3516 79.5505 46.3516 80.6446Z" fill="#52B2AD"/>
<path d="M50.9716 78.1438H50.0476V89.2411H50.9716V78.1438Z" fill="#52B2AD"/>
<path d="M55.5911 78.1438H53.8972V89.2411H55.4371C58.055 89.2411 58.055 87.0529 58.055 85.8025V81.4261C58.209 80.0194 58.209 78.1438 55.5911 78.1438ZM57.2851 81.2698V86.1151C57.2851 87.8344 56.8231 88.4596 55.4371 88.4596H54.8212V79.0816H55.4371C56.9771 79.0816 57.2851 79.7068 57.2851 81.2698Z" fill="#52B2AD"/>
<path d="M62.5208 84.0832H63.9068V85.8025C63.9068 87.5218 63.7528 88.6159 62.6748 88.6159C62.2128 88.6159 61.5969 88.4596 61.5969 86.584V80.9572C61.5969 79.2379 62.2128 78.9253 62.8288 78.9253C63.7528 78.9253 64.0607 79.7068 64.0607 80.8009V81.1135H64.9847V80.8009C64.9847 79.5505 64.6767 77.9875 62.9828 77.9875C62.0588 77.9875 60.8269 78.4564 60.8269 80.8009V86.584C60.8269 88.4596 61.4429 89.3974 62.8288 89.3974C63.4448 89.3974 63.9068 89.0848 64.2147 88.7722C64.2147 88.9285 64.2147 89.0848 64.2147 89.2411V89.3974H64.9847V83.3017H62.6748V84.0832H62.5208Z" fill="#52B2AD"/>
<path d="M68.6805 88.4596V83.7706H71.1444V82.8328H68.6805V79.0816H71.2984V78.1438H67.7566V89.2411H71.2984L71.4524 88.4596H68.6805Z" fill="#52B2AD"/>
</svg>
