<svg width="36" height="36" viewBox="0 0 36 36" fill="none" xmlns="http://www.w3.org/2000/svg">
<g clip-path="url(#clip0_1008_629)">
<path d="M33.9538 25.8053C31.7158 24.4035 29.5417 22.9381 27.3037 21.5363C25.7052 20.5168 23.9787 20.7717 22.7638 22.3009L22.2522 23.0018C21.8686 23.5115 21.4849 24.0212 21.1012 24.531L21.0373 24.5947C21.0373 24.5947 21.0373 24.5947 20.9734 24.5947L20.9094 24.531C20.4618 24.2124 20.0142 23.9575 19.5666 23.6389C16.2416 21.2814 13.556 18.4142 11.4458 15.1009C11.3819 15.0372 11.3819 14.9735 11.3819 14.9735C11.3819 14.9735 11.4458 14.9097 11.5098 14.846L12.341 14.2089C12.7886 13.8903 13.2362 13.5717 13.6199 13.1894C15.0906 12.0425 15.4103 10.3221 14.3872 8.72921C12.9805 6.49912 11.5098 4.26903 10.0391 2.03894C9.07993 0.446022 7.35346 4.32134e-06 5.69094 0.955756C5.30728 1.08319 4.98757 1.27434 4.66785 1.46549C4.02842 1.84779 3.38899 2.16638 2.74956 2.54868C1.72647 3.05841 1.02309 3.88673 0.511545 5.03363C-0.255773 7.00885 0 8.98407 0.255773 10.2584C0.767318 12.6796 1.85435 15.1646 3.64476 17.9044C6.33037 22.1097 9.7833 25.869 14.1314 29.4372C17.0728 31.7947 19.8863 33.515 22.7638 34.6619C24.4902 35.3628 26.0888 35.7451 27.5595 35.8089L27.6234 35.9363L28.3268 35.8089C29.0302 35.7451 29.7336 35.6177 30.373 35.4903C31.9076 35.0443 32.9947 34.2159 33.5702 32.9416C33.8899 32.3044 34.2096 31.731 34.5933 31.0938C34.7851 30.7752 34.913 30.4566 35.1048 30.2018C36 28.6089 35.5524 26.8248 33.9538 25.8053ZM11.7016 10.6407L11.254 11.023C10.6785 11.469 10.103 11.915 9.52753 12.2973C8.05684 13.3805 7.80107 15.1646 8.76021 16.7575C10.4867 19.4336 12.4689 21.7912 14.7709 23.8301C16.2416 25.1044 17.7762 26.2513 19.3748 27.2071C20.8455 28.0991 22.5719 27.7805 23.659 26.3788C24.1066 25.8053 24.5542 25.2319 24.9378 24.6584L25.3215 24.2124C25.3854 24.1487 25.4494 24.085 25.4494 24.085C25.4494 24.085 25.5133 24.1487 25.5773 24.1487C27.7513 25.5504 29.9893 27.0159 32.1634 28.4177C32.2274 28.4814 32.2913 28.5451 32.3552 28.5451C32.3552 28.6089 32.2913 28.6726 32.2274 28.7363C32.0995 28.9912 31.9076 29.246 31.7798 29.5646C31.3961 30.2018 31.0764 30.8389 30.7567 31.4761C30.5009 32.0496 29.9893 32.3681 29.222 32.5593C28.9663 32.623 28.7105 32.623 28.3908 32.6867C28.2629 32.6867 28.135 32.6867 28.0071 32.7504C26.6643 32.6867 25.2576 32.3681 23.595 31.6673C20.8455 30.5204 18.1599 28.8 15.2185 26.315C12.1492 23.7027 9.46359 20.8354 7.28952 17.777C5.69094 15.4195 4.60391 13.3805 3.83659 11.2779C3.32504 9.87611 3.13322 8.79292 3.19716 7.77345C3.19716 6.8177 3.38899 6.18053 3.83659 5.6708C3.83659 5.60708 3.96448 5.54337 4.02842 5.47965C5.11545 4.9062 6.13854 4.26903 7.22558 3.69558C7.28952 3.63186 7.35346 3.63186 7.35346 3.63186C7.35346 3.63186 7.41741 3.69558 7.48135 3.7593C8.8881 5.98938 10.3588 8.15576 11.7655 10.3858C11.8295 10.4496 11.8295 10.5133 11.8295 10.577C11.8295 10.577 11.7655 10.6407 11.7016 10.6407Z" fill="white"/>
<path d="M36 16.2478C35.936 15.8018 35.8721 15.3558 35.7442 14.846C34.913 10.9593 33.0586 7.64602 30.0533 4.84248C28.3268 3.24956 26.4085 2.03894 24.2984 1.21062C22.8916 0.637173 21.2931 0.254872 19.4387 5.21401e-06H19.3748C18.7353 -0.0637116 18.032 0.573456 17.9041 1.33806C17.7762 2.10266 18.3517 2.93098 19.119 3.12213C19.3748 3.18585 19.5666 3.18585 19.8224 3.24956H19.8863C22.8916 3.7593 25.5133 5.03363 27.7513 7.07257C30.373 9.43009 31.9716 12.3611 32.611 15.7381L32.6749 15.9929C32.7389 16.3115 32.8028 16.6301 32.8668 16.9487C33.0586 17.5858 33.698 17.9681 34.3375 17.9681C34.4654 17.9681 34.5932 17.9681 34.7211 17.9044C35.6163 17.777 36.0639 17.0124 36 16.2478Z" fill="white"/>
<path d="M19.5027 7.90088C23.4032 8.85663 26.0249 11.0867 27.4956 14.7186C27.6874 15.1646 27.8153 15.6106 27.9432 16.0566C28.0071 16.3115 28.071 16.5664 28.135 16.8212C28.3268 17.4584 28.9663 17.9681 29.6696 17.9681C29.7336 17.9681 29.8615 17.9681 29.9254 17.9681C30.6288 17.8407 31.2043 17.2035 31.2043 16.4389V16.3115C31.2043 16.2478 31.2043 16.1204 31.1403 16.0566C30.5648 13.1894 29.222 10.7044 27.1758 8.60177C25.1936 6.62655 22.6998 5.35221 19.8224 4.77876C19.119 4.65133 18.4156 4.96991 18.0959 5.60708C17.7762 6.24425 17.968 7.07256 18.5435 7.51858C18.8632 7.77345 19.2469 7.83717 19.5027 7.90088Z" fill="white"/>
<path d="M19.119 12.6797C19.8863 12.8708 20.5897 13.2531 21.2931 13.8266C22.2522 14.5912 22.8917 15.6106 23.3393 16.885C23.5311 17.331 23.7869 17.7133 24.2345 17.9044C24.4263 18.0319 24.6821 18.0319 24.8739 18.0319C25.0657 18.0319 25.2576 17.9681 25.4494 17.9044C26.2807 17.5858 26.6643 16.7575 26.3446 15.8018C25.5133 13.3805 23.9787 11.5328 21.6767 10.3221C21.2291 10.0673 20.7815 9.93983 20.3979 9.8124C20.27 9.74868 20.1421 9.68496 20.0142 9.68496L19.8863 9.62125H19.7584H19.6945C18.4796 9.62125 17.968 10.3221 17.9041 10.9593C17.8402 11.7239 18.2878 12.4885 19.119 12.6797Z" fill="white"/>
</g>
<defs>
<clipPath id="clip0_1008_629">
<rect width="36" height="36" fill="white"/>
</clipPath>
</defs>
</svg>
